# xmcd CD database file
#
# Track frame offsets:
#	150
#	23891
#	42758
#	59779
#	70089
#	79015
#	105883
#	126961
#	141704
#	149508
#
# Disc length: 2377 seconds
#
# Revision: 0
# Processed by: cddbd v1.5.1PL0 Copyright (c) Steve Scherf et al.
# Submitted via: CDex 1.51
#
DISCID=9309470a
DTITLE=Franco Cerri and Gianni Basso - Franco Cerri and Gianni Basso
DYEAR=2001
DGENRE=Jazz
TTITLE0=Following in love with love
TTITLE1=I remeber
TTITLE2=Marmo molle
TTITLE3=Take the "a" train
TTITLE4=Trolley song
TTITLE5=Intra riff blues
TTITLE6=I know why
TTITLE7=Watch what happens
TTITLE8=Laura
TTITLE9=Nice from Andy
EXTD=YEAR: 2001
EXTT0=
EXTT1=
EXTT2=
EXTT3=
EXTT4=
EXTT5=
EXTT6=
EXTT7=
EXTT8=
EXTT9=
PLAYORDER=
